PathFileType	4	(X/Y/Z)	C:/Users/beibeiliu/ov580/test_trc/User3\sequence.10_training_dense_left.trc
DataRate	CameraRate	NumFrames	NumMarkers	Units	OrigDataRate	OrigDataStartFrame	OrigNumFrames
120	120	17	19	mm	120	104	155
Frame#	Time	ThumbCMC			ThumbMCP			ThumbIP			ThumbTip			IndexMCP			IndexPIP			IndexTip			MiddleMCP			MiddlePIP			MiddleTip			RingMCP			RingPIP			RingTip			PinkyMCP			PinkyPIP			PinkyTip			BackHand1			BackHand2			BackHand3	
		X0	Y0	Z0	X1	Y1	Z1	X2	Y2	Z2	X3	Y3	Z3	X4	Y4	Z4	X5	Y5	Z5	X6	Y6	Z6	X7	Y7	Z7	X8	Y8	Z8	X9	Y9	Z9	X10	Y10	Z10	X11	Y11	Z11	X12	Y12	Z12	X13	Y13	Z13	X14	Y14	Z14	X15	Y15	Z15	X16	Y16	Z16	X17	Y17	Z17	X18	Y18	Z18	
103	0.858333	-128.895	10.5494	-8.7667	-128.234	1.35817	-42.4203	-150.303	-2.51953	-66.6223	-180.026	-0.464343	-64.0662	-139.474	54.9019	-69.5206	-135.154	57.9515	-96.387	-133.244	58.4348	-122.783	-166.036	63.7193	-66.3316	-166.198	74.3612	-93.753	-166.015	81.2399	-119.834	-184.185	54.9972	-58.4422	-188.838	64.4391	-81.1877	-196.909	71.4042	-108.587	-203.293	41.8178	-41.5362	-212.568	48.0223	-66.2605	-221.258	38.4588	-91.9771	-180.025	44.1965	-10.3684	-175.84	37.0818	16.5651	-147.262	43.4734	-1.66106	
104	0.866667	-130.928	9.15143	-8.54837	-134.802	0.802162	-44.8114	-159.43	-3.20482	-66.0203	-189.545	1.32524	-57.6856	-143.224	52.351	-72.0989	-141.991	55.2445	-100.26	-142.352	57.1552	-126.671	-172.215	62.2245	-67.4403	-171.004	72.4167	-92.9967	-172.771	81.9392	-125.35	-191.26	57.2348	-59.7407	-193.937	65.4901	-77.3356	-201.205	75.9156	-104.094	-207.134	39.7074	-37.9373	-219.413	51.1718	-57.658	-236.489	56.6519	-75.4566	-183.623	46.9176	-9.60177	-179.348	39.0017	21.9761	-145.658	41.2255	-2.44359	
105	0.875	-134.12	8.30193	-12.545	-136.826	-6.41602	-44.6755	-165.029	-7.84285	-61.0097	-187.59	-8.20962	-54.8726	-145.719	44.4698	-74.6358	-147.328	46.9795	-99.6326	-144.797	46.7488	-130.033	-171.488	55.5417	-70.1074	-174.886	63.8792	-94.8311	-177.323	72.0428	-126.866	-193.357	47.8569	-56.5868	-198.491	59.8498	-82.22	-208.382	69.6544	-106.739	-214.886	34.8941	-38.8144	-226.152	43.628	-54.3811	-237.637	51.7982	-70.8999	-181.243	42.5667	-11.5358	-177.042	37.88	18.8638	-152.394	39.8664	-8.21766	
106	0.883333	-127.674	-0.225164	-11.6066	-132.023	-21.4103	-42.0319	-163.15	-27.0246	-57.0238	-189.714	-22.9959	-43.7538	-148.543	23.6487	-82.4092	-146.855	20.9327	-106.813	-147.576	14.6707	-132.005	-177.562	33.5087	-79.3149	-179.694	34.4798	-103.304	-186.371	36.937	-135.706	-195.52	26.1287	-61.9374	-205.259	30.2893	-84.8096	-214.79	34.0134	-109.09	-214.909	15.8106	-45.2176	-230.955	17.4807	-56.6679	-247.57	22.0142	-75.3811	-186.134	29.4412	-17.0787	-178.286	30.9392	15.401	-148.326	31.2933	-11.1283	
107	0.891667	-124.572	-2.46815	-6.00424	-125.629	-28.7894	-34.4081	-148.878	-44.3724	-44.0446	-176.868	-44.9574	-34.9647	-141.685	-2.30174	-79.2966	-139.542	-12.8124	-103.823	-138.549	-25.494	-126.94	-173.707	-1.72901	-82.5941	-173.89	-8.3009	-108.113	-177.856	-16.1195	-133.557	-192.774	-7.88548	-65.6647	-201.34	-11.9036	-85.459	-205.37	-17.1464	-112.194	-208.463	-16.4059	-44.0232	-218.858	-24.464	-57.8719	-233.127	-30.131	-75.8197	-185.942	12.8807	-20.4376	-179.136	22.9815	9.26754	-150.119	24.9754	-17.6095	
108	0.9	-118.31	6.77364	-0.635318	-109.514	-23.355	-19.0994	-124.177	-49.8933	-28.9479	-148.708	-57.4102	-21.3259	-123.422	-17.2165	-72.4594	-114.369	-31.429	-91.5366	-102.876	-46.052	-111.896	-150.043	-28.5708	-77.4763	-145.637	-44.1955	-98.5483	-140.611	-57.6344	-122.69	-170.962	-39.2172	-62.862	-172.442	-50.1583	-77.7138	-171.151	-64.8569	-100.626	-185.65	-47.1788	-38.299	-190.488	-63.7519	-50.3849	-194.621	-72.9893	-64.1873	-176.607	-0.547484	-23.507	-179.429	16.1578	0.94758	-149.044	17.8433	-19.8445	
109	0.908333	-121.099	23.5978	3.79547	-94.6705	-1.1884	-5.77527	-101.441	-31.7316	-11.2904	-124.602	-48.6558	-7.81463	-102.935	-10.5167	-60.9328	-87.1112	-18.1771	-72.2059	-70.985	-28.1515	-87.4002	-121.362	-29.1919	-60.25	-105.081	-44.2195	-77.3755	-93.6756	-58.9259	-94.5207	-135.579	-44.5053	-49.2965	-124.996	-59.9445	-62.6276	-118.787	-73.6892	-76.2511	-149.532	-58.1558	-27.2108	-138.911	-71.0649	-34.3435	-140.458	-87.2288	-44.2098	-168.369	-6.8822	-19.2508	-181.384	11.5989	-0.185926	-151.127	25.1537	-17.59	
110	0.916667	-138.094	47.1694	9.38319	-99.8973	32.1127	1.03905	-91.5445	2.02316	-2.52131	-105.988	-19.1904	1.50753	-96.2618	21.976	-51.8847	-73.1941	18.4141	-62.5102	-56.2727	18.7512	-74.0385	-96.5583	-4.10855	-51.2347	-75.1783	-11.0527	-61.1934	-52.3039	-15.7046	-79.8446	-104.582	-21.9905	-37.6669	-87.0898	-30.2876	-44.7987	-70.398	-41.2024	-57.2564	-111.935	-37.4095	-15.3513	-95.6735	-44.3713	-15.4272	-84.0084	-56.1724	-22.5569	-157.372	-8.52578	-17.3071	-180.573	0.526375	-0.0846401	-159.908	29.7362	-18.3489	
111	0.925	-158.28	54.2536	3.97617	-122.465	62.8367	1.16103	-97.5376	41.6017	-2.24929	-93.7774	14.7349	2.99173	-108.018	53.2978	-54.4158	-88.1317	60.3308	-64.9427	-65.7681	68.6408	-77.1719	-94.7758	31.2962	-53.2554	-72.5121	34.49	-59.7593	-45.8603	40.7465	-75.7664	-90.1777	10.763	-34.4845	-70.6935	12.1764	-41.5815	-49.548	13.6321	-51.8485	-92.393	-5.35563	-10.1811	-74.9227	-1.81031	-9.34938	-53.5848	-6.83736	-16.8514	-140.865	0.375775	-21.7841	-169.053	-4.30707	-3.06373	-165.877	25.1731	-19.6401	
112	0.933333	-176.516	48.0355	-3.08085	-144.487	68.042	-14.7197	-114.852	58.1943	-15.7691	-98.7093	36.875	-5.45965	-130.366	56.3779	-65.6141	-115.215	72.6316	-82.7964	-96.6247	85.4776	-97.3391	-106.704	37.1306	-59.0211	-91.9288	52.4805	-74.6838	-70.295	65.47	-91.2261	-93.7415	28.824	-43.6717	-77.3721	35.9448	-52.9012	-58.3544	45.0595	-65.5691	-86.2856	20.8198	-17.7052	-74.586	29.2574	-19.0778	-51.797	33.4034	-26.1105	-136.603	-0.433145	-18.6344	-156.273	-10.0281	-2.24157	-167.738	14.6799	-24.8652	
113	0.941667	-188.118	26.4817	-11.7816	-170.073	46.9288	-31.8577	-136.74	47.3589	-39.334	-113.496	33.6141	-26.6752	-154.453	24.6491	-77.6007	-145.047	37.1997	-103.667	-135.237	50.7056	-123.616	-123.906	13.1671	-76.5039	-117.879	23.2908	-96.0665	-97.4363	37.0567	-122.559	-110.34	10.3592	-59.7343	-97.8156	17.5	-74.1264	-77.5112	24.8047	-94.0012	-98.1324	9.86794	-30.428	-80.1419	19.3626	-40.3886	-61.7727	24.8484	-51.42	-142.198	-13.7332	-22.8096	-152.658	-25.5455	5.69184	-176.43	-8.08115	-20.1207	
114	0.95	-198.304	3.07182	-8.30333	-186.316	14.0688	-43.8989	-158.232	11.1265	-58.945	-136.678	5.18023	-48.0068	-185.108	-22.7935	-80.982	-183.721	-18.2035	-110.337	-176.73	-12.4892	-132.643	-160.75	-34.2121	-80.5501	-151.409	-33.3719	-110.984	-146.463	-27.2098	-137.15	-135.268	-35.4683	-69.5363	-128.594	-34.2818	-88.578	-116.632	-31.5997	-113.706	-120.186	-25.9078	-44.9217	-106.169	-22.6806	-62.8782	-87.4053	-19.9635	-77.978	-155.014	-39.2311	-16.0028	-158.343	-41.3437	8.51193	-187.147	-34.0149	-11.7353	
115	0.958333	-204.582	-2.81622	-10.7279	-200.379	2.90306	-43.8381	-176.293	-10.6221	-67.2651	-154.471	-22.3134	-58.247	-215.358	-43.1498	-71.7194	-221.217	-46.3723	-102.467	-221.715	-44.3811	-125.383	-191.981	-62.5748	-74.3006	-192.025	-68.313	-105.154	-192.922	-65.6358	-133.379	-171.807	-62.079	-63.8857	-167.629	-71.8105	-93.0666	-161.619	-72.3891	-117.815	-144.119	-58.6681	-51.7847	-132.788	-61.2976	-69.4562	-124.375	-62.9048	-93.7576	-174.134	-54.8034	-15.1305	-175.635	-49.0321	12.9215	-206.742	-37.1428	-7.04156	
116	0.966667	-202.172	8.4403	-7.08375	-201.601	3.70527	-46.3496	-188.604	-14.3047	-65.9548	-171.366	-35.6525	-54.8813	-235.315	-33.8996	-61.7669	-245.71	-39.1122	-87.0376	-249.962	-38.688	-115.662	-223.873	-58.688	-61.3952	-234.944	-64.6068	-91.1726	-232.876	-68.5419	-123.608	-202.945	-67.1978	-55.5458	-209.591	-77.0614	-83.094	-205.741	-83.3437	-109.222	-177.724	-69.9943	-48.9248	-171.371	-80.1863	-66.7682	-165.859	-85.6711	-91.4425	-198.979	-52.6405	-8.3604	-188.081	-47.8656	19.1021	-216.671	-24.8259	3.20375	
117	0.975	-183.355	23.317	-7.0902	-189.428	18.3938	-46.9887	-192.309	-5.49854	-63.1643	-188.581	-31.734	-53.8419	-243.738	2.21504	-54.9652	-256.504	5.70586	-80.9989	-258.825	3.75065	-108.749	-245.872	-22.2737	-51.4158	-259.725	-25.7198	-78.4759	-262.537	-28.2072	-111.116	-233.898	-37.7784	-48.4519	-245.711	-44.406	-69.9092	-246.302	-51.9665	-101.554	-210.877	-57.6567	-39.5712	-217.356	-66.5952	-62.7656	-219.237	-70.8762	-88.3004	-214.971	-31.7356	-4.14587	-197.516	-25.9684	24.6529	-212.988	-0.903966	6.27008	
118	0.983333	-157.555	22.8834	-10.8121	-165.328	22.1318	-48.0507	-185.044	4.28733	-61.8133	-198.022	-19.6603	-55.3247	-215.201	47.2717	-54.9428	-225.741	54.1723	-83.3272	-227.628	50.0742	-109.236	-232.955	29.6235	-50.3888	-247.109	35.8809	-76.3825	-253.111	30.5608	-111.723	-239.352	5.14888	-47.5319	-252.062	5.66788	-67.6728	-257.756	0.620536	-99.9313	-230.182	-20.5555	-35.8939	-243.665	-25.1216	-54.4384	-250.056	-27.5519	-80.6908	-213.594	0.723273	0.480484	-197.404	-4.96571	25.6023	-187.334	27.7227	6.97987	
119	0.991667	-133.501	13.7213	-13.5654	-137.661	9.82808	-51.3768	-165.74	-0.0463631	-65.5811	-187.98	-11.7998	-52.048	-167.314	51.4799	-65.6292	-172.342	57.5963	-95.0011	-175.358	49.5179	-124.154	-198.259	47.9581	-62.2189	-207.254	54.0383	-92.929	-213.008	47.0164	-126.56	-211.965	31.7825	-53.5779	-222.45	35.7831	-77.4211	-233.414	28.4279	-102.562	-219.299	8.06677	-37.9139	-235.588	5.50851	-54.7237	-245.262	2.88067	-78.7223	-194.619	26.2521	-7.5298	-184.867	16.6434	20.7797	-160.703	35.2306	1.65421	
